<svg xmlns="http://www.w3.org/2000/svg" viewBox="0 0 24 24" style="display: none;">
  <!-- Play Icon -->
  <symbol id="play" viewBox="0 0 24 24">
    <path fill="currentColor" d="M8 5v14l11-7z"/>
  </symbol>
  
  <!-- Pause Icon -->
  <symbol id="pause" viewBox="0 0 24 24">
    <path fill="currentColor" d="M6 19h4V5H6v14zm8-14v14h4V5h-4z"/>
  </symbol>
  
  <!-- Previous/Skip Backward Icon -->
  <symbol id="skip-previous" viewBox="0 0 24 24">
    <path fill="currentColor" d="M6 6h2v12H6zm3.5 6l8.5 6V6z"/>
  </symbol>
  
  <!-- Next/Skip Forward Icon -->
  <symbol id="skip-next" viewBox="0 0 24 24">
    <path fill="currentColor" d="M6 18l8.5-6L6 6v12zM16 6v12h2V6h-2z"/>
  </symbol>
  
  <!-- Volume Up Icon -->
  <symbol id="volume-up" viewBox="0 0 24 24">
    <path fill="currentColor" d="M3 9v6h4l5 5V4L7 9H3zm13.5 3c0-1.77-1.02-3.29-2.5-4.03v8.05c1.48-.73 2.5-2.25 2.5-4.02zM14 3.23v2.06c2.89.86 5 3.54 5 6.71s-2.11 5.85-5 6.71v2.06c4.01-.91 7-4.49 7-8.77s-2.99-7.86-7-8.77z"/>
  </symbol>
  
  <!-- Volume Down Icon -->
  <symbol id="volume-down" viewBox="0 0 24 24">
    <path fill="currentColor" d="M18.5 12c0-1.77-1.02-3.29-2.5-4.03v8.05c1.48-.73 2.5-2.25 2.5-4.02zM5 9v6h4l5 5V4L9 9H5z"/>
  </symbol>
  
  <!-- Volume Mute Icon -->
  <symbol id="volume-mute" viewBox="0 0 24 24">
    <path fill="currentColor" d="M7 9v6h4l5 5V4l-5 5H7z"/>
  </symbol>
  
  <!-- Shuffle Icon -->
  <symbol id="shuffle" viewBox="0 0 24 24">
    <path fill="currentColor" d="M10.59 9.17L5.41 4 4 5.41l5.17 5.17 1.42-1.41zM14.5 4l2.04 2.04L4 18.59 5.41 20 17.96 7.46 20 9.5V4h-5.5zm.33 9.41l-1.41 1.41 3.13 3.13L14.5 20H20v-5.5l-2.04 2.04-3.13-3.13z"/>
  </symbol>
  
  <!-- Repeat Icon -->
  <symbol id="repeat" viewBox="0 0 24 24">
    <path fill="currentColor" d="M7 7h10v3l4-4-4-4v3H5v6h2V7zm10 10H7v-3l-4 4 4 4v-3h12v-6h-2v4z"/>
  </symbol>
  
  <!-- Repeat One Icon -->
  <symbol id="repeat-one" viewBox="0 0 24 24">
    <path fill="currentColor" d="M7 7h10v3l4-4-4-4v3H5v6h2V7zm10 10H7v-3l-4 4 4 4v-3h12v-6h-2v4zm-4-2V9h-1l-2 1v1h1.5v4H13z"/>
  </symbol>
  
  <!-- Music Note Icon -->
  <symbol id="music-note" viewBox="0 0 24 24">
    <path fill="currentColor" d="M12 3v10.55c-.59-.34-1.27-.55-2-.55-2.21 0-4 1.79-4 4s1.79 4 4 4 4-1.79 4-4V7h4V3h-6z"/>
  </symbol>
  
  <!-- Library/Music Library Icon -->
  <symbol id="library-music" viewBox="0 0 24 24">
    <path fill="currentColor" d="M20 2H8c-1.1 0-2 .9-2 2v12c0 1.1.9 2 2 2h12c1.1 0 2-.9 2-2V4c0-1.1-.9-2-2-2zm-2 5h-3v5.5c0 1.38-1.12 2.5-2.5 2.5S10 13.88 10 12.5s1.12-2.5 2.5-2.5c.57 0 1.08.19 1.5.51V5h4v2zM4 6H2v14c0 1.1.9 2 2 2h14v-2H4V6z"/>
  </symbol>
  
  <!-- Upload Icon -->
  <symbol id="upload" viewBox="0 0 24 24">
    <path fill="currentColor" d="M14,2H6A2,2 0 0,0 4,4V20A2,2 0 0,0 6,22H18A2,2 0 0,0 20,20V8L14,2M18,20H6V4H13V9H18V20Z"/>
    <path fill="currentColor" d="M12 16L16 12H13V8H11V12H8L12 16Z"/>
  </symbol>
  
  <!-- Home Icon -->
  <symbol id="home" viewBox="0 0 24 24">
    <path fill="currentColor" d="M10 20v-6h4v6h5v-8h3L12 3 2 12h3v8z"/>
  </symbol>
  
  <!-- Search Icon -->
  <symbol id="search" viewBox="0 0 24 24">
    <path fill="currentColor" d="M15.5 14h-.79l-.28-.27C15.41 12.59 16 11.11 16 9.5 16 5.91 13.09 3 9.5 3S3 5.91 3 9.5 5.91 16 9.5 16c1.61 0 3.09-.59 4.23-1.57l.27.28v.79l5 4.99L20.49 19l-4.99-5zm-6 0C7.01 14 5 11.99 5 9.5S7.01 5 9.5 5 14 7.01 14 9.5 11.99 14 9.5 14z"/>
  </symbol>
  
  <!-- Heart/Favorite Icon -->
  <symbol id="favorite" viewBox="0 0 24 24">
    <path fill="currentColor" d="M12 21.35l-1.45-1.32C5.4 15.36 2 12.28 2 8.5 2 5.42 4.42 3 7.5 3c1.74 0 3.41.81 4.5 2.09C13.09 3.81 14.76 3 16.5 3 19.58 3 22 5.42 22 8.5c0 3.78-3.4 6.86-8.55 11.54L12 21.35z"/>
  </symbol>
  
  <!-- Heart Outline/Favorite Border Icon -->
  <symbol id="favorite-border" viewBox="0 0 24 24">
    <path fill="currentColor" d="M16.5 3c-1.74 0-3.41.81-4.5 2.09C10.91 3.81 9.24 3 7.5 3 4.42 3 2 5.42 2 8.5c0 3.78 3.4 6.86 8.55 11.54L12 21.35l1.45-1.32C18.6 15.36 22 12.28 22 8.5 22 5.42 19.58 3 16.5 3zm-4.4 15.55l-.1.1-.1-.1C7.14 14.24 4 11.39 4 8.5 4 6.5 5.5 5 7.5 5c1.54 0 3.04.99 3.57 2.36h1.87C13.46 5.99 14.96 5 16.5 5c2 0 3.5 1.5 3.5 3.5 0 2.89-3.14 5.74-7.9 10.05z"/>
  </symbol>
  
  <!-- More Vertical (Three Dots) Icon -->
  <symbol id="more-vert" viewBox="0 0 24 24">
    <path fill="currentColor" d="M12 8c1.1 0 2-.9 2-2s-.9-2-2-2-2 .9-2 2 .9 2 2 2zm0 2c-1.1 0-2 .9-2 2s.9 2 2 2 2-.9 2-2-.9-2-2-2zm0 6c-1.1 0-2 .9-2 2s.9 2 2 2 2-.9 2-2-.9-2-2-2z"/>
  </symbol>
  
  <!-- Close Icon -->
  <symbol id="close" viewBox="0 0 24 24">
    <path fill="currentColor" d="M19 6.41L17.59 5 12 10.59 6.41 5 5 6.41 10.59 12 5 17.59 6.41 19 12 13.41 17.59 19 19 17.59 13.41 12z"/>
  </symbol>
  
  <!-- Equalizer Icon -->
  <symbol id="equalizer" viewBox="0 0 24 24">
    <path fill="currentColor" d="M10 20h4V4h-4v16zm-6 0h4v-8H4v8zM16 9v11h4V9h-4z"/>
  </symbol>
  
  <!-- Playlist Play Icon -->
  <symbol id="playlist-play" viewBox="0 0 24 24">
    <path fill="currentColor" d="M4 10h12v2H4zm0-4h12v2H4zm0 8h8v2H4zm10 0v6l5-3z"/>
  </symbol>
  
  <!-- Queue Music Icon -->
  <symbol id="queue-music" viewBox="0 0 24 24">
    <path fill="currentColor" d="M15 6H3v2h12V6zm0 4H3v2h12v-2zM3 16h8v-2H3v2zM17 6v8.18c-.31-.11-.65-.18-1-.18-1.66 0-3 1.34-3 3s1.34 3 3 3 3-1.34 3-3V8h3V6h-5z"/>
  </symbol>
</svg>